#!OML:ASF H:\MichaelJackson\Top Level 1\Subject 1\Session 1\male.ASF
:FULLY-SPECIFIED
:DEGREES
491
root 2.99046 15.9813 11.4398 -348.56 -12.6328 -11.3744
lowerback 10.9909 4.37774 6.88943
upperback 2.98038 6.61368 2.66714
thorax -2.54977 3.24984 -1.89423
lowerneck -5.56619 -2.39557 2.52002
upperneck -2.95473 -3.33786 0.412375
head -0.0271179 -1.69525 -0.334988
rclavicle 8.54774e-014 4.01545e-014
rhumerus -35.1168 -22.6183 -82.5951
rradius 28.9961
rwrist 22.8388
rhand -27.9176 -18.7688
rfingers 7.12502
rthumb -1.3063 -408.745
lclavicle 8.54774e-014 4.01545e-014
lhumerus -40.2531 -9.85643 94.3831
lradius 60.7116
lwrist 19.9037
lhand -30.9879 2.6645
lfingers 7.12502
lthumb -4.27147 32.6014
rfemur -10.4785 -17.823 22.1404
rtibia 39.2665
rfoot -27.3296 -15.1381
rtoes -33.2526
lfemur -69.7942 32.3809 -24.7449
ltibia 92.7256
lfoot -11.032 -1.78357
ltoes 11.4172
492
root 2.96901 15.9892 11.5226 -348.268 -12.5399 -11.3188
lowerback 10.8535 4.39116 6.77194
upperback 2.94678 6.60822 2.63365
thorax -2.51963 3.24846 -1.85389
lowerneck -5.66542 -2.34407 2.53681
upperneck -3.11377 -3.27219 0.360781
head -0.0598343 -1.66442 -0.352364
rclavicle 1.15494e-013 -1.13307e-014
rhumerus -35.1271 -21.4872 -83.1193
rradius 29.2323
rwrist 22.1983
rhand -28.6759 -19.9782
rfingers 7.12502
rthumb -2.03874 -409.948
lclavicle 1.15494e-013 -1.13307e-014
lhumerus -40.3064 -10.1012 94.002
lradius 60.0276
lwrist 19.4695
lhand -29.2649 4.38009
lfingers 7.12502
lthumb -2.60755 34.3439
rfemur -10.1457 -17.4111 22.1894
rtibia 38.6226
rfoot -27.1672 -15.5097
rtoes -33.15
lfemur -69.5725 31.3343 -24.1738
ltibia 89.36
lfoot -11.0963 -1.40178
ltoes 11.2722
493
root 2.94886 15.9968 11.6101 -347.985 -12.3992 -11.2474
lowerback 10.678 4.37593 6.63351
upperback 2.91026 6.56029 2.60322
thorax -2.47758 3.2266 -1.79131
lowerneck -5.73828 -2.27791 2.56274
upperneck -3.24999 -3.18714 0.294303
head -0.0899594 -1.6238 -0.37538
rclavicle -3.37437e-014 1.799e-014
rhumerus -35.0867 -20.0083 -83.7619
rradius 29.483
rwrist 21.3119
rhand -29.3511 -21.2856
rfingers 7.12502
rthumb -2.69077 -411.248
lclavicle -3.37437e-014 1.799e-014
lhumerus -40.4723 -10.3359 93.6475
lradius 59.4662
lwrist 19.1812
lhand -27.5897 5.85154
lfingers 7.12502
lthumb -0.989609 35.829
rfemur -9.76424 -16.9609 22.2287
rtibia 37.9304
rfoot -26.9732 -15.9422
rtoes -33.0125
lfemur -69.2429 30.2708 -23.5111
ltibia 85.8835
lfoot -11.1163 -1.02249
ltoes 11.2376
494
root 2.92986 16.0037 11.7024 -347.714 -12.2106 -11.1728
lowerback 10.4724 4.33356 6.48644
upperback 2.86798 6.47434 2.57837
thorax -2.4292 3.18611 -1.71211
lowerneck -5.79141 -2.1994 2.60025
upperneck -3.35104 -3.08617 0.218398
head -0.112586 -1.57497 -0.403067
rclavicle 7.13637e-014 4.79071e-014
rhumerus -35.0364 -18.2201 -84.5076
rradius 29.7535
rwrist 20.14
rhand -29.9472 -22.5589
rfingers 7.12502
rthumb -3.26644 -412.514
lclavicle 7.13637e-014 4.79071e-014
lhumerus -40.7702 -10.5774 93.3284
lradius 59.0462
lwrist 19.096
lhand -26.0017 7.0968
lfingers 7.12502
lthumb 0.544086 37.0759
rfemur -9.32493 -16.4795 22.2687
rtibia 37.19
rfoot -26.7573 -16.4283
rtoes -32.843
lfemur -68.8133 29.1965 -22.7502
ltibia 82.3305
lfoot -11.1049 -0.668638
ltoes 11.2918
495
root 2.91212 16.0088 11.7996 -347.446 -11.9862 -11.1061
lowerback 10.2346 4.27125 6.33944
upperback 2.81299 6.36123 2.56069
thorax -2.37862 3.13207 -1.62097
lowerneck -5.82132 -2.11245 2.64304
upperneck -3.41143 -2.97395 0.141014
head -0.126412 -1.52012 -0.432038
rclavicle 3.65515e-014 1.82882e-014
rhumerus -35.0299 -16.2105 -85.3134
rradius 30.0645
rwrist 18.7413
rhand -30.4563 -23.647
rfingers 7.12502
rthumb -3.75814 -413.594
lclavicle 3.65515e-014 1.82882e-014
lhumerus -41.2164 -10.8369 93.0585
lradius 58.7806
lwrist 19.2362
lhand -24.5379 8.15344
lfingers 7.12502
lthumb 1.95788 38.1242
rfemur -8.83851 -15.9747 22.318
rtibia 36.4049
rfoot -26.5287 -16.9509
rtoes -32.6542
lfemur -68.3112 28.1251 -21.8988
ltibia 78.7356
lfoot -11.061 -0.351777
ltoes 11.4361
496
root 2.89576 16.0116 11.9018 -347.186 -11.739 -11.0569
lowerback 9.97429 4.19447 6.20271
upperback 2.74444 6.23008 2.55135
thorax -2.33018 3.06877 -1.52424
lowerneck -5.83134 -2.02114 2.68738
upperneck -3.42718 -2.8557 0.0653767
head -0.129625 -1.46178 -0.460843
rclavicle 8.56265e-014 1.31695e-014
rhumerus -35.1095 -14.0966 -86.1296
rradius 30.4348
rwrist 17.2652
rhand -30.8286 -24.4774
rfingers 7.12502
rthumb -4.11762 -414.417
lclavicle 8.56265e-014 1.31695e-014
lhumerus -41.8286 -11.1232 92.8484
lradius 58.688
lwrist 19.5923
lhand -23.2206 9.09289
lfingers 7.12502
lthumb 3.23006 39.0482
rfemur -8.29893 -15.454 22.3798
rtibia 35.5775
rfoot -26.2919 -17.5021
rtoes -32.467
lfemur -67.746 27.0744 -20.9575
ltibia 75.1328
lfoot -10.9789 -0.0794192
ltoes 11.6314
497
root 2.88104 16.0119 12.009 -346.932 -11.4828 -11.0299
lowerback 9.691 4.11022 6.08165
upperback 2.66423 6.09043 2.55096
thorax -2.28032 3.00107 -1.42525
lowerneck -5.83329 -1.92893 2.72921
upperneck -3.39588 -2.7361 -0.00668242
head -0.119543 -1.40222 -0.488467
rclavicle 4.33351e-014 -3.38928e-014
rhumerus -35.3018 -11.9995 -86.9066
rradius 30.8683
rwrist 15.9307
rhand -31.0242 -25.0078
rfingers 7.12502
rthumb -4.30653 -414.944
lclavicle 4.33351e-014 -3.38928e-014
lhumerus -42.6157 -11.4485 92.7091
lradius 58.7835
lwrist 20.1369
lhand -22.0524 9.96327
lfingers 7.12502
lthumb 4.35815 39.8984
rfemur -7.70864 -14.9241 22.4535
rtibia 34.7104
rfoot -26.0498 -18.0638
rtoes -32.2841
lfemur -67.1308 26.0589 -19.9356
ltibia 71.5557
lfoot -10.8488 0.151245
ltoes 11.7928
498
root 2.86824 16.01 12.1216 -346.688 -11.2393 -11.0283
lowerback 9.39141 4.0297 5.98322
upperback 2.57053 5.95805 2.55411
thorax -2.23223 2.93664 -1.33564
lowerneck -5.82164 -1.8415 2.77868
upperneck -3.31944 -2.62311 -0.0796632
head -0.0979293 -1.34559 -0.517972
rclavicle -2.15309e-014 -1.83876e-015
rhumerus -35.6282 -10.031 -87.6083
rradius 31.3498
rwrist 14.9377
rhand -31.0479 -25.2342
rfingers 7.12502
rthumb -4.32941 -415.17
lclavicle -2.15309e-014 -1.83876e-015
lhumerus -43.5899 -11.8219 92.6431
lradius 59.0728
lwrist 20.8054
lhand -21.0116 10.807
lfingers 7.12502
lthumb 5.36312 40.7191
rfemur -7.0645 -14.3812 22.5343
rtibia 33.8045
rfoot -25.7988 -18.6251
rtoes -32.1073
lfemur -66.4713 25.0982 -18.8402
ltibia 68.0357
lfoot -10.6593 0.347811
ltoes 11.9503
499
root 2.85767 16.0062 12.2398 -346.449 -11.021 -11.0449
lowerback 9.06761 3.9533 5.89651
upperback 2.46928 5.83134 2.56312
thorax -2.17692 2.87507 -1.24606
lowerneck -5.81314 -1.75445 2.82704
upperneck -3.2006 -2.51084 -0.158148
head -0.0627341 -1.28891 -0.549413
rclavicle -2.05991e-014 -1.12562e-014
rhumerus -36.078 -8.23526 -88.2135
rradius 31.8619
rwrist 14.3834
rhand -30.913 -25.1823
rfingers 7.12502
rthumb -4.19916 -415.121
lclavicle -2.05991e-014 -1.12562e-014
lhumerus -44.7483 -12.2228 92.6517
lradius 59.5577
lwrist 21.5325
lhand -20.0721 11.6215
lfingers 7.12502
lthumb 6.2702 41.5087
rfemur -6.37389 -13.8274 22.6111
rtibia 32.8619
rfoot -25.5317 -19.1792
rtoes -31.9596
lfemur -65.78 24.1953 -17.6912
ltibia 64.6035
lfoot -10.4049 0.531095
ltoes 12.084
500
root 2.84953 16.0007 12.3636 -346.217 -10.8331 -11.0697
lowerback 8.71842 3.88425 5.81505
upperback 2.36033 5.71376 2.57401
thorax -2.11393 2.81812 -1.15733
lowerneck -5.79909 -1.67022 2.86966
upperneck -3.05222 -2.40184 -0.233508
head -0.0191576 -1.23351 -0.579172
rclavicle -3.40326e-014 -4.08627e-014
rhumerus -36.6457 -6.64697 -88.7151
rradius 32.3838
rwrist 14.2754
rhand -30.6757 -24.8901
rfingers 7.12502
rthumb -3.97001 -414.833
lclavicle -3.40326e-014 -4.08627e-014
lhumerus -46.0877 -12.6579 92.7387
lradius 60.2201
lwrist 22.2685
lhand -19.2277 12.3251
lfingers 7.12502
lthumb 7.08537 42.1865
rfemur -5.64066 -13.254 22.6737
rtibia 31.8877
rfoot -25.2386 -19.7291
rtoes -31.8458
lfemur -65.0554 23.338 -16.5003
ltibia 61.2897
lfoot -10.0961 0.729572
ltoes 12.1754
501
root 2.84401 15.9938 12.493 -345.99 -10.6775 -11.095
lowerback 8.34147 3.8216 5.73317
upperback 2.24698 5.60306 2.58334
thorax -2.0389 2.76485 -1.06939
lowerneck -5.79643 -1.58783 2.91346
upperneck -2.87466 -2.29575 -0.311715
head 0.0353363 -1.17934 -0.610429
rclavicle -4.30555e-014 -1.01132e-014
rhumerus -37.3132 -5.24174 -89.1333
rradius 32.9136
rwrist 14.4791
rhand -30.4019 -24.434
rfingers 7.12502
rthumb -3.70561 -414.382
lclavicle -4.30555e-014 -1.01132e-014
lhumerus -47.581 -13.1223 92.9013
lradius 61.0281
lwrist 22.9702
lhand -18.4723 12.8658
lfingers 7.12502
lthumb 7.81449 42.7014
rfemur -4.87536 -12.65 22.7161
rtibia 30.8914
rfoot -24.9184 -20.2755
rtoes -31.7572
lfemur -64.3059 22.5109 -15.2788
ltibia 58.1268
lfoot -9.75867 0.970453
ltoes 12.2419
